<svg xmlns="http://www.w3.org/2000/svg" viewBox="0 0 148.7 20.4"><defs><style>.a{font-size:16px;font-family:NeueMetanaNextFreePersonal-Sm, Neue Metana Next Free Personal;font-weight:700;}.a,.h{fill:#fff;}.b{letter-spacing:0em;}.c{letter-spacing:0em;}.d{letter-spacing:0em;}.e{letter-spacing:0em;}.f{letter-spacing:-0.01em;}.g{letter-spacing:-0.02em;}</style></defs><title>Ресурс 7</title><text class="a" transform="translate(25.5 14.8)"><tspan class="b">B</tspan><tspan class="c" x="12.9" y="0">r</tspan><tspan class="d" x="25.3" y="0">ain</tspan><tspan class="e" x="60.6" y="0">B</tspan><tspan class="f" x="73.4" y="0">r</tspan><tspan x="85.8" y="0">ea</tspan><tspan class="g" x="111.7" y="0">k</tspan></text><path class="h" d="M9.2.1h.6l4.4,2.5a.5.5,0,0,1,.3.5V7.9l4.2,2.4a.5.5,0,0,1,.3.5v5.1a.5.5,0,0,1-.3.5l-4.5,2.5a.5.5,0,0,1-.5,0L9.5,16.5,5.3,18.9a.5.5,0,0,1-.5,0L.3,16.4a.5.5,0,0,1-.3-.5V10.8a.5.5,0,0,1,.3-.5L4.5,7.9V3.1a.5.5,0,0,1,.3-.5ZM5,8.9,1.8,10.8,5,12.6l3.3-1.8Zm3.9,2.9L5.6,13.7v3.7l3.3-1.9Zm1.2,3.7,3.3,1.9V13.7l-3.3-1.9Zm.6-4.7L14,12.6l3.2-1.8L14,8.9Zm2.7-2.9V4.2L10.1,6V9.7ZM8.9,9.7V6L5.6,4.2V7.9ZM6.2,3.1,9.5,5l3.3-1.9L9.5,1.3Zm11.6,8.7-3.3,1.9v3.7l3.3-1.9ZM4.5,17.4V13.7L1.2,11.8v3.7Z"/></svg>