<svg id="f5296c13-0e37-4000-a7a5-3da398c27e2c" data-name="Слой 1" xmlns="http://www.w3.org/2000/svg" viewBox="0 0 148.7 18.9">
  <defs>
    <style>
      .\35 9e0e18d-172a-43aa-a902-766f036e218e {
        isolation: isolate;
      }
    </style>
  </defs>
  <title>logo</title>
  <g class="59e0e18d-172a-43aa-a902-766f036e218e">
    <g class="59e0e18d-172a-43aa-a902-766f036e218e">
      <path d="M37.7,11.9c0,2.3-1.9,2.9-3.9,2.9H27V3.6h6c2.2,0,4.5.4,4.5,2.7S36,8.8,34.3,9v.5C36.1,9.7,37.7,9.9,37.7,11.9ZM29.4,5.4V8.6h3.7c1.2,0,2.1-.6,2.1-1.7s-1-1.5-2.3-1.5Zm5.9,6.2c0-1.2-.9-1.7-2.2-1.7H29.4v3.3h4C34.5,13.2,35.3,12.7,35.3,11.6Z" transform="translate(0 -0.1)"/>
    </g>
    <g class="59e0e18d-172a-43aa-a902-766f036e218e">
      <path d="M50.6,10H48.4c0-1.7-.5-2.5-2.3-2.5A4,4,0,0,0,42,10.8v4H39.6v-9H42V7.2l-.3,1h.5a4.6,4.6,0,0,1,4.4-2.6C48.8,5.6,50.8,6.6,50.6,10Z" transform="translate(0 -0.1)"/>
    </g>
    <g class="59e0e18d-172a-43aa-a902-766f036e218e">
      <path d="M55.2,9.3A8.1,8.1,0,0,1,60,11V9.8c0-1.6-.8-2.3-2.9-2.3H52.4V5.8H58c3,0,4.4,1.3,4.4,4.2v3h1.5v1.8H60.8c-.5,0-.7-.5-.7-.9a6.1,6.1,0,0,1,.4-1.7l-.4-.3A5.2,5.2,0,0,1,55.3,15c-1.9,0-3.9-1.1-3.9-3S53.2,9.3,55.2,9.3Zm1,4.3a3.9,3.9,0,0,0,3.3-1.9A7.5,7.5,0,0,0,56,10.5c-.6,0-2.2.2-2.2,1.5S55,13.6,56.2,13.6Z" transform="translate(0 -0.1)"/>
      <path d="M64.5,13h2.8V7.5H64.5V5.8H68a1.5,1.5,0,0,1,1.7,1.7V13h2.7v1.8H64.5ZM68.4,1.6A1.3,1.3,0,0,1,69.9,3a1.4,1.4,0,0,1-1.5,1.4A1.4,1.4,0,0,1,66.8,3C66.8,2.1,67.4,1.6,68.4,1.6Z" transform="translate(0 -0.1)"/>
      <path d="M84.9,9.8v5H82.5V10.3c0-1.1-.1-2.8-2.4-2.8a3.8,3.8,0,0,0-3.8,3.3v4H73.9v-9h2.4V7.2l-.4,1h.6a4.5,4.5,0,0,1,4.4-2.6C83,5.6,84.9,6.5,84.9,9.8Z" transform="translate(0 -0.1)"/>
    </g>
    <g class="59e0e18d-172a-43aa-a902-766f036e218e">
      <path d="M98.3,11.9c0,2.3-1.9,2.9-3.9,2.9H87.6V3.6h6c2.2,0,4.5.4,4.5,2.7S96.6,8.8,94.9,9v.5C96.7,9.7,98.3,9.9,98.3,11.9ZM90,5.4V8.6h3.7c1.2,0,2.1-.6,2.1-1.7s-1-1.5-2.3-1.5Zm5.9,6.2c0-1.2-.9-1.7-2.2-1.7H90v3.3h4C95.1,13.2,95.9,12.7,95.9,11.6Z" transform="translate(0 -0.1)"/>
    </g>
    <g class="59e0e18d-172a-43aa-a902-766f036e218e">
      <path d="M111.1,10h-2.2c0-1.7-.5-2.5-2.3-2.5a4,4,0,0,0-4.1,3.3v4h-2.4v-9h2.4V7.2l-.3,1h.5a4.6,4.6,0,0,1,4.4-2.6C109.3,5.6,111.3,6.6,111.1,10Z" transform="translate(0 -0.1)"/>
    </g>
    <g class="59e0e18d-172a-43aa-a902-766f036e218e">
      <path d="M114.4,10.4v.4c.1,1.8,1.4,2.8,3.3,2.8a3.4,3.4,0,0,0,3.4-2h2.1c-.6,2.4-3.1,3.4-5.6,3.4s-5.5-1.6-5.5-4.7,2.6-4.7,5.4-4.7,5.2,1.8,5.1,4.8Zm5.9-.9A2.5,2.5,0,0,0,117.5,7a2.8,2.8,0,0,0-3,2.5Z" transform="translate(0 -0.1)"/>
      <path d="M128.3,9.3A7.5,7.5,0,0,1,133,11a4.8,4.8,0,0,0,0-1.2c0-1.6-.7-2.3-2.8-2.3h-4.7V5.8H131c3.1,0,4.4,1.3,4.4,4.2v3H137v1.8h-3.1c-.5,0-.7-.5-.7-.9a6.1,6.1,0,0,1,.4-1.7l-.4-.3a5.2,5.2,0,0,1-4.8,3.1c-1.9,0-3.9-1.1-3.9-3S126.3,9.3,128.3,9.3Zm1,4.3a3.9,3.9,0,0,0,3.3-1.9,7.5,7.5,0,0,0-3.5-1.2c-.6,0-2.2.2-2.2,1.5S128.1,13.6,129.3,13.6Z" transform="translate(0 -0.1)"/>
    </g>
    <g class="59e0e18d-172a-43aa-a902-766f036e218e">
      <path d="M144.4,9.2c.3,2.1,1.4,3.8,2.8,3.8h1.4v1.8h-1.9c-2,0-3.5-2.4-3.8-4.5h-.5l-1.6,2v2.5h-2.4V3.1h2.4V9.4l-.6,1.1h.5l.6-1,4.4-3.7h2.5Z" transform="translate(0 -0.1)"/>
    </g>
  </g>
  <path d="M9.2.1h.6l4.4,2.5a.5.5,0,0,1,.3.5V7.9l4.2,2.4a.5.5,0,0,1,.3.5v5.1a.5.5,0,0,1-.3.5l-4.5,2.5a.5.5,0,0,1-.5,0L9.5,16.5,5.3,18.9a.5.5,0,0,1-.5,0L.3,16.4a.5.5,0,0,1-.3-.5V10.8a.5.5,0,0,1,.3-.5L4.5,7.9V3.1a.5.5,0,0,1,.3-.5ZM5,8.9,1.8,10.8,5,12.6l3.3-1.8Zm3.9,2.9L5.6,13.7v3.7l3.3-1.9Zm1.2,3.7,3.3,1.9V13.7l-3.3-1.9Zm.6-4.7L14,12.6l3.2-1.8L14,8.9Zm2.7-2.9V4.2L10.1,6V9.7ZM8.9,9.7V6L5.6,4.2V7.9ZM6.2,3.1,9.5,5l3.3-1.9L9.5,1.3Zm11.6,8.7-3.3,1.9v3.7l3.3-1.9ZM4.5,17.4V13.7L1.2,11.8v3.7Z" transform="translate(0 -0.1)"/>
</svg>
